<?xml version="1.0" encoding="UTF-8"?>
<svg id="Layer_2" data-name="Layer 2" xmlns="http://www.w3.org/2000/svg" viewBox="0 0 64 64">
  <defs>
    <style>
      .cls-1 {
        fill: #231f20;
      }
    </style>
  </defs>
  <g id="Layer_1-2" data-name="Layer 1">
    <path class="cls-1" d="M64,31.84c-.09-17.6-14.38-31.84-32-31.84S0,14.33,0,32s14.33,32,32,32c8.41,0,16.06-3.25,21.77-8.55v8.55h10.23V31.84h0Zm-32,25.55c-14.02,0-25.39-11.37-25.39-25.39S17.98,6.61,32,6.61c12.8,0,23.35,9.48,25.1,21.79h-5.65c-1.69-9.21-9.75-16.2-19.45-16.2-10.93,0-19.8,8.86-19.8,19.8,0,9.74,7.04,17.82,16.31,19.47v-6.53c-4.59-1.23-8.21-4.83-9.46-9.42h5.68c1.33,2.67,4.07,4.51,7.26,4.51,4.48,0,8.11-3.63,8.11-8.11s-3.63-8.11-8.11-8.11c-3.24,0-6.02,1.9-7.32,4.65h-5.61c1.55-5.7,6.75-9.89,12.93-9.89,7.41,0,13.42,6.01,13.42,13.42,0,6.2-4.22,11.41-9.93,12.94v6.53c8.14-1.45,14.57-7.86,16.01-16.01h5.63c-1.69,12.38-12.28,21.92-25.12,21.92Z"/>
  </g>
</svg>