<?xml version="1.0" encoding="UTF-8"?>
<svg id="Layer_2" data-name="Layer 2" xmlns="http://www.w3.org/2000/svg" viewBox="0 0 152.73 32">
  <defs>
    <style>
      .cls-1 {
        fill: #231f20;
      }
    </style>
  </defs>
  <g id="Layer_1-2" data-name="Layer 1">
    <g>
      <path class="cls-1" d="M11.27,9.44c2.07,0,3.96,.51,5.67,1.53,1.71,1.02,3.08,2.38,4.09,4.08,1.02,1.7,1.53,3.59,1.53,5.66v11.29h-4.33v-2.44c-2.02,1.63-4.34,2.44-6.96,2.44-2.07,0-3.95-.51-5.66-1.53-1.7-1.02-3.07-2.38-4.08-4.09-1.02-1.71-1.53-3.6-1.53-5.67s.51-3.95,1.53-5.66c1.02-1.7,2.38-3.07,4.08-4.08,1.7-1.02,3.59-1.53,5.66-1.53Zm-.5,4.28c-1.93,0-3.57,.68-4.92,2.04-1.36,1.36-2.04,3-2.04,4.92s.68,3.59,2.04,4.95c1.36,1.36,3,2.04,4.92,2.04s3.59-.68,4.93-2.04c1.35-1.36,2.02-3.01,2.02-4.95s-.67-3.57-2.02-4.92c-1.35-1.36-2.99-2.04-4.93-2.04Zm7.27,15.57s-.06,.03-.07,.05c.02-.02,.04-.03,.07-.05Zm.21-.19s-.03,.03-.05,.05c.02-.02,.03-.03,.05-.05Zm.66-.62s-.03,0-.05,.02c.02-.02,.03-.02,.05-.02Zm.43-.5s0,.03-.02,.05c.02-.02,.02-.03,.02-.05Zm.21-.26s-.03,.06-.05,.07c.02-.02,.03-.04,.05-.07Zm.19-.24s-.03,.06-.05,.07c.02-.02,.03-.04,.05-.07Zm.52-.73l-.02,.02,.02-.02Zm.36-.57s-.03,.03-.05,.05c.02-.02,.03-.03,.05-.05Zm.14-.28s-.03,.06-.05,.07c.02-.02,.03-.04,.05-.07Zm.14-.28s-.03,.06-.05,.09c.02-.03,.03-.06,.05-.09Zm.12-.26s0,.06-.02,.07c.02-.02,.02-.04,.02-.07Zm.14-.28s-.03,.06-.05,.07c.02-.02,.03-.04,.05-.07Zm.24-.62s-.02,.04-.02,.07c0-.03,0-.06,.02-.07Zm.09-.31s0,.06-.02,.09c.02-.03,.02-.06,.02-.09Zm.09-.31s0,.06-.02,.09c.02-.03,.02-.06,.02-.09Zm.09-.28s-.02,.06-.02,.09c0-.03,0-.06,.02-.09Zm.07-.31s-.02,.06-.02,.09c0-.03,0-.06,.02-.09Zm.07-.28s-.02,.03-.02,.05c0-.02,0-.03,.02-.05Zm.07-.38s-.02,.04-.02,.07c0-.03,0-.06,.02-.07Zm.05-.33s0,.06-.02,.09c.02-.03,.02-.06,.02-.09Zm.05-.33s-.02,.09-.02,.12c0-.03,0-.07,.02-.12Zm.02-.31s0,.09-.02,.12c.02-.03,.02-.07,.02-.12Z"/>
      <path class="cls-1" d="M25.4,9.44h4.31v2.49c.98-.77,2.07-1.38,3.27-1.82,1.2-.44,2.46-.66,3.79-.66s2.67,.23,3.91,.7c1.23,.47,2.34,1.12,3.34,1.95l-3.05,3.05c-1.22-.93-2.61-1.4-4.19-1.4-1.94,0-3.59,.68-4.93,2.04-1.35,1.36-2.02,3-2.02,4.92h-.09v11.29h-4.31V9.44Z"/>
      <path class="cls-1" d="M46.84,0h4.31V4.31h-4.31V0Zm0,9.44h4.31v22.56h-4.31V9.44Z"/>
      <path class="cls-1" d="M65.25,9.44c2.07,0,3.96,.51,5.67,1.53,1.71,1.02,3.08,2.38,4.09,4.08,1.02,1.7,1.53,3.59,1.53,5.66v11.29h-4.33v-2.44c-2.02,1.63-4.34,2.44-6.96,2.44-2.07,0-3.95-.51-5.66-1.53-1.7-1.02-3.07-2.38-4.08-4.09-1.02-1.71-1.53-3.6-1.53-5.67s.51-3.95,1.53-5.66c1.02-1.7,2.38-3.07,4.08-4.08,1.7-1.02,3.59-1.53,5.66-1.53Zm-.5,4.28c-1.93,0-3.57,.68-4.92,2.04-1.36,1.36-2.04,3-2.04,4.92s.68,3.59,2.04,4.95c1.36,1.36,3,2.04,4.92,2.04s3.59-.68,4.93-2.04c1.35-1.36,2.02-3.01,2.02-4.95s-.67-3.57-2.02-4.92c-1.35-1.36-2.99-2.04-4.93-2.04Zm7.27,15.57s-.06,.03-.07,.05c.02-.02,.04-.03,.07-.05Zm.21-.19s-.03,.03-.05,.05c.02-.02,.03-.03,.05-.05Zm.66-.62s-.03,0-.05,.02c.02-.02,.03-.02,.05-.02Zm.43-.5s0,.03-.02,.05c.02-.02,.02-.03,.02-.05Zm.21-.26s-.03,.06-.05,.07c.02-.02,.03-.04,.05-.07Zm.19-.24s-.03,.06-.05,.07c.02-.02,.03-.04,.05-.07Zm.52-.73l-.02,.02,.02-.02Zm.36-.57s-.03,.03-.05,.05c.02-.02,.03-.03,.05-.05Zm.14-.28s-.03,.06-.05,.07c.02-.02,.03-.04,.05-.07Zm.14-.28s-.03,.06-.05,.09c.02-.03,.03-.06,.05-.09Zm.12-.26s0,.06-.02,.07c.02-.02,.02-.04,.02-.07Zm.14-.28s-.03,.06-.05,.07c.02-.02,.03-.04,.05-.07Zm.24-.62s-.02,.04-.02,.07c0-.03,0-.06,.02-.07Zm.09-.31s0,.06-.02,.09c.02-.03,.02-.06,.02-.09Zm.09-.31s0,.06-.02,.09c.02-.03,.02-.06,.02-.09Zm.09-.28s-.02,.06-.02,.09c0-.03,0-.06,.02-.09Zm.07-.31s-.02,.06-.02,.09c0-.03,0-.06,.02-.09Zm.07-.28s-.02,.03-.02,.05c0-.02,0-.03,.02-.05Zm.07-.38s-.02,.04-.02,.07c0-.03,0-.06,.02-.07Zm.05-.33s0,.06-.02,.09c.02-.03,.02-.06,.02-.09Zm.05-.33s-.02,.09-.02,.12c0-.03,0-.07,.02-.12Zm.02-.31s0,.09-.02,.12c.02-.03,.02-.07,.02-.12Z"/>
      <path class="cls-1" d="M84.99,30.47c-1.7-1.02-3.07-2.38-4.08-4.09-1.02-1.71-1.53-3.6-1.53-5.67s.51-3.95,1.53-5.66c1.02-1.7,2.38-3.07,4.08-4.08,1.7-1.02,3.59-1.53,5.66-1.53,2.62,0,4.94,.8,6.96,2.41V0h4.33V20.71c0,2.07-.51,3.96-1.53,5.67-1.02,1.71-2.38,3.08-4.09,4.09-1.71,1.02-3.6,1.53-5.67,1.53s-3.95-.51-5.66-1.53Zm10.59-4.83c1.35-1.35,2.02-2.99,2.02-4.94s-.67-3.57-2.02-4.92c-1.35-1.36-2.99-2.04-4.93-2.04s-3.57,.68-4.92,2.04-2.04,3-2.04,4.92,.68,3.59,2.04,4.94c1.36,1.35,3,2.02,4.92,2.02s3.59-.67,4.93-2.02Zm2.26-13.6s.04,.03,.07,.05c-.03-.02-.06-.03-.07-.05Zm.24,.19s.03,.06,.05,.07c-.02-.02-.03-.04-.05-.07Zm.43,.43s.06,.03,.07,.05c-.02-.02-.04-.03-.07-.05Zm.24,.24s.03,0,.05,.02c-.02-.02-.03-.02-.05-.02Zm.45,.47s.02,.03,.02,.05c0-.02,0-.03-.02-.05Zm.19,.24s.03,.03,.05,.05c-.02-.02-.03-.03-.05-.05Zm.19,.21s.03,.06,.05,.09c-.02-.03-.03-.06-.05-.09Zm.35,.5s.03,.06,.05,.07c-.02-.02-.03-.04-.05-.07Zm.19,.28s0,.02,.02,.02c-.02,0-.02,0-.02-.02Zm.33,.54s.03,.06,.05,.07c-.02-.02-.03-.04-.05-.07Zm.14,.26s.03,.06,.05,.09c-.02-.03-.03-.06-.05-.09Zm.14,.26s.03,.06,.05,.09c-.02-.03-.03-.06-.05-.09Zm.14,.28s.02,.06,.02,.09c0-.03,0-.06-.02-.09Zm.12,.28s.03,.06,.05,.07c-.02-.02-.03-.04-.05-.07Zm.26,.64s0,.06,.02,.07c-.02-.02-.02-.04-.02-.07Zm.09,.28s.02,.06,.02,.09c0-.03,0-.06-.02-.09Zm.09,.28s.02,.07,.02,.12c0-.05,0-.09-.02-.12Zm.09,.31s0,.06,.02,.09c-.02-.03-.02-.06-.02-.09Zm.07,.28s0,.07,.02,.12c-.02-.05-.02-.09-.02-.12Zm.07,.35s0,.03,.02,.05c-.02-.02-.02-.03-.02-.05Zm.07,.36s0,.04,.02,.07c-.02-.03-.02-.06-.02-.07Zm.05,.31s.02,.06,.02,.09c0-.03,0-.06-.02-.09Zm.05,.28s0,.09,.02,.12c-.02-.03-.02-.07-.02-.12Zm.02,.33s.02,.06,.02,.09c0-.03,0-.06-.02-.09Z"/>
      <path class="cls-1" d="M104.78,9.44h4.31v2.41c2.02-1.61,4.34-2.41,6.96-2.41,2.05,0,3.92,.5,5.61,1.49,1.69,.99,3.04,2.32,4.06,3.99,1.02,1.66,1.55,3.53,1.6,5.6h.02v11.48h-4.33v-11.31c-.05-1.97-.73-3.62-2.06-4.95s-2.96-1.99-4.9-1.99-3.57,.68-4.92,2.04c-1.36,1.36-2.04,3-2.04,4.92v11.29h-4.31V9.44Z"/>
      <path class="cls-1" d="M140.92,9.47h1.04c.16,.02,.32,.02,.5,.02,.16,.02,.32,.04,.47,.07h.02c.16,.02,.32,.04,.47,.07h.02c.16,.03,.31,.06,.45,.09h.05c.14,.05,.28,.09,.43,.12,.02,0,.03,0,.05,.02,.14,.03,.28,.07,.43,.12h.05c.13,.05,.26,.09,.4,.14,.02,.02,.03,.02,.05,.02,.14,.05,.28,.1,.4,.17,.02,0,.04,0,.07,.02,.13,.05,.24,.1,.35,.17,.03,.02,.05,.02,.07,.02,.13,.06,.24,.13,.35,.19,.03,.02,.06,.03,.09,.05,.11,.05,.22,.1,.33,.17,.03,.02,.06,.03,.09,.05,.09,.08,.2,.15,.31,.21,.03,.02,.06,.03,.09,.05,.11,.06,.21,.13,.31,.21,.03,.02,.06,.04,.09,.07l.28,.21s.06,.04,.09,.07l.28,.21s.06,.06,.09,.07v.02c1.99,1.67,3.27,3.83,3.83,6.46,.14,.69,.21,1.41,.21,2.15s-.07,1.46-.21,2.15h-17.7c.47,1.42,1.31,2.58,2.5,3.47,1.19,.89,2.57,1.34,4.13,1.34s3-.47,4.21-1.4l3.03,3.05c-.98,.84-2.09,1.49-3.33,1.95-1.24,.47-2.54,.7-3.92,.7-1.81,0-3.5-.4-5.05-1.2-1.55-.8-2.86-1.88-3.91-3.25s-1.75-2.93-2.09-4.66c-.05-.27-.09-.53-.12-.78-.02-.02-.02-.03-.02-.05,0-.08,0-.16-.02-.24v-.05c0-.08,0-.15-.02-.21v-.28s-.02-.1-.02-.17v-.73c0-.08,0-.15,.02-.21v-.26c.02-.06,.02-.13,.02-.21v-.07c.02-.06,.02-.13,.02-.21,0-.02,0-.03,.02-.05,0-.08,0-.16,.02-.24v-.02c.02-.09,.03-.18,.05-.26,.02-.09,.03-.18,.05-.26,.03-.17,.06-.33,.09-.47v-.02c.13-.47,.28-.94,.45-1.4,.05-.14,.1-.28,.17-.43l.02-.02c.19-.44,.4-.86,.64-1.25,0-.02,0-.02,.02-.02,.08-.13,.16-.25,.24-.38,0-.02,0-.03,.02-.05,.08-.13,.17-.24,.26-.36v-.02c.17-.25,.36-.5,.57-.73,.02,0,.02,0,.02-.02,.09-.11,.19-.22,.28-.33,.02,0,.03,0,.05-.02,.09-.11,.2-.21,.31-.31,0-.02,0-.02,.02-.02,.22-.22,.44-.43,.66-.62l.02-.02,.36-.28s.03,0,.05-.02c.11-.09,.22-.18,.33-.26,.02-.02,.03-.02,.05-.02,.13-.09,.25-.18,.38-.26,.13-.08,.25-.16,.38-.24h.05c.11-.08,.24-.15,.38-.21,.02-.02,.03-.03,.05-.05,.13-.06,.25-.13,.38-.19,.02,0,.04,0,.07-.02,.13-.06,.25-.12,.38-.17,.02-.02,.03-.02,.05-.02,.13-.05,.26-.1,.4-.17h.02l.43-.14s.03-.02,.05-.02c.14-.05,.28-.09,.43-.12,.02-.02,.04-.02,.07-.02,.14-.03,.28-.07,.4-.12h.07c.14-.03,.28-.06,.43-.09h.02c.14-.03,.29-.06,.45-.07h.07c.14-.02,.28-.03,.43-.05,.02-.02,.04-.02,.07-.02,.14,0,.29,0,.45-.02Zm.52,4.31c-.19,0-.38,0-.57,.02h-.02c-.17,.02-.35,.03-.52,.05-.02,.02-.03,.02-.05,.02-.17,.03-.35,.06-.52,.09h-.02c-.17,.05-.34,.1-.5,.17h-.02c-.17,.05-.34,.11-.5,.19h-.02c-.16,.06-.32,.14-.47,.24h-.02c-.14,.08-.29,.17-.45,.26s-.31,.2-.45,.31c-.28,.21-.55,.43-.81,.69v.02c-.13,.13-.24,.25-.35,.38h-.02c-.11,.14-.21,.28-.31,.43h-.02c-.41,.58-.73,1.23-.97,1.94h13.25c-.47-1.42-1.29-2.56-2.46-3.43-.02-.02-.03-.03-.05-.05-.13-.09-.26-.18-.4-.26-.02-.02-.03-.03-.05-.05-.14-.08-.28-.16-.4-.24-.03,0-.06,0-.07-.02l-.43-.21s-.04,0-.07-.02c-.14-.06-.29-.12-.45-.17-.02,0-.03,0-.05-.02l-.5-.14h-.02c-.17-.05-.35-.08-.52-.09l-.02-.02c-.19-.02-.37-.03-.54-.05h-.02c-.19-.02-.38-.02-.57-.02Z"/>
    </g>
  </g>
</svg>