<svg width="16" height="16" viewBox="0 0 16 16" fill="none" xmlns="http://www.w3.org/2000/svg">
<g clip-path="url(#clip0_3_2)">
<rect width="16" height="16" rx="4" fill="#D9D9D9"/>
<g clip-path="url(#clip1_3_2)">
<path d="M14 7.97C13.9831 4.67 11.3038 2 8 2C4.69625 2 2 4.68687 2 8C2 11.3131 4.68687 14 8 14C9.57687 14 11.0113 13.3906 12.0819 12.3969V14H14V7.97ZM8 12.7606C5.37125 12.7606 3.23938 10.6288 3.23938 8C3.23938 5.37125 5.37125 3.23938 8 3.23938C10.4 3.23938 12.3781 5.01687 12.7062 7.325H11.6469C11.33 5.59812 9.81875 4.2875 8 4.2875C5.95062 4.2875 4.2875 5.94875 4.2875 8C4.2875 9.82625 5.6075 11.3413 7.34563 11.6506V10.4262C6.485 10.1956 5.80625 9.52063 5.57187 8.66H6.63687C6.88625 9.16063 7.4 9.50562 7.99812 9.50562C8.83812 9.50562 9.51875 8.825 9.51875 7.985C9.51875 7.145 8.83812 6.46437 7.99812 6.46437C7.39062 6.46437 6.86938 6.82062 6.62563 7.33625H5.57375C5.86437 6.2675 6.83937 5.48187 7.99812 5.48187C9.3875 5.48187 10.5144 6.60875 10.5144 7.99812C10.5144 9.16062 9.72312 10.1375 8.6525 10.4244V11.6487C10.1787 11.3769 11.3844 10.175 11.6544 8.64688H12.71C12.3931 10.9681 10.4075 12.7569 8 12.7569V12.7606Z" fill="#231F20"/>
</g>
</g>
<defs>
<clipPath id="clip0_3_2">
<rect width="16" height="16" fill="white"/>
</clipPath>
<clipPath id="clip1_3_2">
<rect width="12" height="12" fill="white" transform="translate(2 2)"/>
</clipPath>
</defs>
</svg>
