<?xml version="1.0" encoding="utf-8"?>
<!-- Generator: Adobe Illustrator 27.0.0, SVG Export Plug-In . SVG Version: 6.00 Build 0)  -->
<svg version="1.1"
	 id="svg835" xmlns:cc="http://creativecommons.org/ns#" xmlns:dc="http://purl.org/dc/elements/1.1/" xmlns:svg="http://www.w3.org/2000/svg" xmlns:rdf="http://www.w3.org/1999/02/22-rdf-syntax-ns#"
	 xmlns="http://www.w3.org/2000/svg" xmlns:xlink="http://www.w3.org/1999/xlink" x="0px" y="0px" viewBox="0 0 24 24"
	 style="enable-background:new 0 0 24 24;" xml:space="preserve">
<style type="text/css">
	.st0{fill:#18ABE7;}
	.st1{fill:#1789FB;}
	.st2{fill:#1871F0;}
</style>
<g>
	<path class="st0" d="M7.2,21.1c-0.7-0.2-1.3-0.6-1.8-1.2c-0.1-0.1-0.1-0.2-0.2-0.2c0,0,0,0,0,0c0.1-0.4-0.1-0.8-0.2-1.2
		C3.5,14.3,5.1,9.8,8.7,7.3c1.9-1.3,4-1.9,6.3-1.7c1.1,0.5,2,1.3,2.7,2.3c-0.9,0-1.8,0-2.6,0.1c-1.1,0.2-2.3,0.4-3.2,1.2
		c-1.2,0.4-2,1.3-2.8,2.2C8.5,12.2,7.8,13,7.6,14c-0.6,1-0.7,2-0.8,3.1C6.6,18.5,7,19.8,7.2,21.1z"/>
	<path class="st1" d="M15.1,5.5C12.8,5.4,10.7,6,8.7,7.3c-3.7,2.5-5.2,7.1-3.9,11.3c0.1,0.4,0.3,0.7,0.2,1.2c-3-2.1-4-6.8-2.2-10.4
		C5.2,4.7,11.1,2.9,15.1,5.5z"/>
	<path class="st2" d="M12,9.2c0.9-0.8,2.1-1,3.2-1.2c0.9-0.2,1.7-0.2,2.6-0.1c0.2,0,0.5,0,0.7,0c0.7-0.1,1.1-0.5,1.1-1.1
		c0-0.7-0.4-1.1-1.1-1.2c-0.2,0-0.5,0-0.7,0c-1-0.1-1.6-0.8-1.7-1.7c0-0.9,0.7-1.7,1.6-1.8c1.2-0.1,2.4,0,3.6,0
		C21.7,2,22,2.2,22,2.6c0,0.5-0.4,0.6-0.8,0.6c-1,0-1.9,0-2.9,0c-0.5,0-1,0-1,0.6c0,0.6,0.5,0.6,1,0.6c1.4,0.1,2.3,0.8,2.5,2
		c0.2,1.1-0.4,2.1-1.7,2.5c-0.6,0.2-0.3,0.5-0.2,0.8c1,2.4,0.9,4.7-0.1,7c-0.1,0.2-0.2,0.4-0.4,0.6c0-0.2,0-0.5,0-0.7
		C18.4,12.8,15.8,9.8,12,9.2z"/>
	<path class="st1" d="M7.2,21.1c-0.2-1.3-0.6-2.6-0.4-3.9C6.9,16.1,7,15,7.6,14c1.4,0,2.4,0.7,3.4,1.5c1.9,1.5,2.6,3.5,2.9,5.8
		C11.6,22.3,9.3,22.3,7.2,21.1z"/>
	<path class="st1" d="M12,9.2c3.8,0.6,6.4,3.6,6.5,7.4c0,0.2,0,0.5,0,0.7c-0.5,1.2-1.3,2.1-2.4,2.8c-0.1-0.9,0.1-1.8-0.1-2.7
		c-0.6-3.1-3.1-5.6-6.8-6C10,10.5,10.7,9.5,12,9.2z"/>
	<path class="st2" d="M9.2,11.4c3.6,0.4,6.1,3,6.8,6c0.2,0.9,0,1.8,0.1,2.7c-0.6,0.6-1.4,1-2.2,1.2c-0.2-2.3-1-4.3-2.9-5.8
		c-1-0.8-2-1.5-3.4-1.5C7.8,13,8.5,12.2,9.2,11.4z"/>
	<path class="st1" d="M5.1,19.7c0.1,0.1,0.1,0.2,0.2,0.2C5.3,19.8,5.2,19.7,5.1,19.7z"/>
</g>
</svg>
